<mxfile host="app.diagrams.net" modified="2022-03-21T16:31:04.640Z" agent="5.0 (Macintosh; Intel Mac OS X 10_15_7) AppleWebKit/605.1.15 (KHTML, like Gecko) Version/15.4 Safari/605.1.15" etag="c-3zcDx9uG_XEOYdKD8j" version="17.1.3" type="github">
  <diagram id="7h0FN6l88VVdwsIPHmU2" name="Page-1">
    <mxGraphModel dx="1186" dy="532" grid="1" gridSize="10" guides="1" tooltips="1" connect="1" arrows="1" fold="1" page="1" pageScale="1" pageWidth="827" pageHeight="1169" math="0" shadow="0">
      <root>
        <mxCell id="0" />
        <mxCell id="1" parent="0" />
        <mxCell id="UPu4TW0xkY7LnopA_LCy-1" value="" style="rounded=0;whiteSpace=wrap;html=1;" parent="1" vertex="1">
          <mxGeometry x="320" y="40" width="120" height="60" as="geometry" />
        </mxCell>
        <mxCell id="UPu4TW0xkY7LnopA_LCy-3" value="UNIVERSITY" style="text;html=1;resizable=0;autosize=1;align=center;verticalAlign=middle;points=[];fillColor=none;strokeColor=none;rounded=0;strokeWidth=2;perimeterSpacing=0;fontSize=15;" parent="1" vertex="1">
          <mxGeometry x="325" y="60" width="110" height="20" as="geometry" />
        </mxCell>
        <mxCell id="UPu4TW0xkY7LnopA_LCy-4" value="" style="rounded=0;whiteSpace=wrap;html=1;fontSize=15;strokeWidth=2;" parent="1" vertex="1">
          <mxGeometry x="20" y="160" width="120" height="60" as="geometry" />
        </mxCell>
        <mxCell id="UPu4TW0xkY7LnopA_LCy-5" value="CLASSROOM" style="text;html=1;resizable=0;autosize=1;align=center;verticalAlign=middle;points=[];fillColor=none;strokeColor=none;rounded=0;fontSize=15;" parent="1" vertex="1">
          <mxGeometry x="25" y="180" width="110" height="20" as="geometry" />
        </mxCell>
        <mxCell id="UPu4TW0xkY7LnopA_LCy-6" value="" style="rounded=0;whiteSpace=wrap;html=1;fontSize=15;strokeWidth=2;" parent="1" vertex="1">
          <mxGeometry x="180" y="160" width="120" height="60" as="geometry" />
        </mxCell>
        <mxCell id="UPu4TW0xkY7LnopA_LCy-7" value="WORK OFFICE" style="text;html=1;resizable=0;autosize=1;align=center;verticalAlign=middle;points=[];fillColor=none;strokeColor=none;rounded=0;fontSize=15;" parent="1" vertex="1">
          <mxGeometry x="180" y="180" width="120" height="20" as="geometry" />
        </mxCell>
        <mxCell id="UPu4TW0xkY7LnopA_LCy-9" value="" style="rounded=0;whiteSpace=wrap;html=1;fontSize=15;strokeWidth=2;" parent="1" vertex="1">
          <mxGeometry x="420" y="160" width="120" height="60" as="geometry" />
        </mxCell>
        <mxCell id="UPu4TW0xkY7LnopA_LCy-13" value="DEPARTMENT" style="text;html=1;resizable=0;autosize=1;align=center;verticalAlign=middle;points=[];fillColor=none;strokeColor=none;rounded=0;fontSize=15;" parent="1" vertex="1">
          <mxGeometry x="420" y="180" width="120" height="20" as="geometry" />
        </mxCell>
        <mxCell id="UPu4TW0xkY7LnopA_LCy-16" value="" style="rounded=0;whiteSpace=wrap;html=1;fontSize=15;strokeWidth=2;" parent="1" vertex="1">
          <mxGeometry x="600" y="160" width="120" height="60" as="geometry" />
        </mxCell>
        <mxCell id="UPu4TW0xkY7LnopA_LCy-17" value="EMPLOYEE" style="text;html=1;resizable=0;autosize=1;align=center;verticalAlign=middle;points=[];fillColor=none;strokeColor=none;rounded=0;fontSize=15;" parent="1" vertex="1">
          <mxGeometry x="610" y="180" width="100" height="20" as="geometry" />
        </mxCell>
        <mxCell id="UPu4TW0xkY7LnopA_LCy-18" value="" style="rounded=0;whiteSpace=wrap;html=1;fontSize=15;strokeWidth=2;" parent="1" vertex="1">
          <mxGeometry x="540" y="280" width="120" height="60" as="geometry" />
        </mxCell>
        <mxCell id="UPu4TW0xkY7LnopA_LCy-19" value="" style="rounded=0;whiteSpace=wrap;html=1;fontSize=15;strokeWidth=2;" parent="1" vertex="1">
          <mxGeometry x="680" y="280" width="120" height="60" as="geometry" />
        </mxCell>
        <mxCell id="UPu4TW0xkY7LnopA_LCy-20" value="PROFESSOR" style="text;html=1;resizable=0;autosize=1;align=center;verticalAlign=middle;points=[];fillColor=none;strokeColor=none;rounded=0;fontSize=15;" parent="1" vertex="1">
          <mxGeometry x="545" y="300" width="110" height="20" as="geometry" />
        </mxCell>
        <mxCell id="UPu4TW0xkY7LnopA_LCy-21" value="OFFICER" style="text;html=1;resizable=0;autosize=1;align=center;verticalAlign=middle;points=[];fillColor=none;strokeColor=none;rounded=0;fontSize=15;" parent="1" vertex="1">
          <mxGeometry x="700" y="300" width="80" height="20" as="geometry" />
        </mxCell>
        <mxCell id="UPu4TW0xkY7LnopA_LCy-24" value="" style="endArrow=diamondThin;endFill=0;endSize=24;html=1;rounded=0;fontSize=15;entryX=0.5;entryY=1;entryDx=0;entryDy=0;exitX=0.5;exitY=0;exitDx=0;exitDy=0;" parent="1" source="UPu4TW0xkY7LnopA_LCy-6" target="UPu4TW0xkY7LnopA_LCy-1" edge="1">
          <mxGeometry width="160" relative="1" as="geometry">
            <mxPoint x="370" y="120" as="sourcePoint" />
            <mxPoint x="530" y="240" as="targetPoint" />
            <Array as="points">
              <mxPoint x="240" y="140" />
              <mxPoint x="320" y="140" />
              <mxPoint x="380" y="140" />
            </Array>
          </mxGeometry>
        </mxCell>
        <mxCell id="UPu4TW0xkY7LnopA_LCy-25" value="" style="endArrow=diamondThin;endFill=0;endSize=24;html=1;rounded=0;fontSize=15;exitX=0.5;exitY=0;exitDx=0;exitDy=0;entryX=1;entryY=0.75;entryDx=0;entryDy=0;" parent="1" source="UPu4TW0xkY7LnopA_LCy-9" target="UPu4TW0xkY7LnopA_LCy-1" edge="1">
          <mxGeometry width="160" relative="1" as="geometry">
            <mxPoint x="370" y="240" as="sourcePoint" />
            <mxPoint x="530" y="240" as="targetPoint" />
            <Array as="points">
              <mxPoint x="480" y="140" />
              <mxPoint x="480" y="120" />
              <mxPoint x="480" y="85" />
            </Array>
          </mxGeometry>
        </mxCell>
        <mxCell id="UPu4TW0xkY7LnopA_LCy-27" value="" style="endArrow=diamondThin;endFill=0;endSize=24;html=1;rounded=0;fontSize=15;entryX=0;entryY=0.5;entryDx=0;entryDy=0;exitX=0.5;exitY=0;exitDx=0;exitDy=0;" parent="1" source="UPu4TW0xkY7LnopA_LCy-4" target="UPu4TW0xkY7LnopA_LCy-1" edge="1">
          <mxGeometry width="160" relative="1" as="geometry">
            <mxPoint x="230" y="170" as="sourcePoint" />
            <mxPoint x="530" y="240" as="targetPoint" />
            <Array as="points">
              <mxPoint x="80" y="70" />
            </Array>
          </mxGeometry>
        </mxCell>
        <mxCell id="UPu4TW0xkY7LnopA_LCy-28" value="" style="endArrow=diamondThin;endFill=0;endSize=24;html=1;rounded=0;fontSize=15;exitX=1;exitY=0.5;exitDx=0;exitDy=0;exitPerimeter=0;entryX=-0.004;entryY=0.517;entryDx=0;entryDy=0;entryPerimeter=0;" parent="1" source="UPu4TW0xkY7LnopA_LCy-7" target="UPu4TW0xkY7LnopA_LCy-13" edge="1">
          <mxGeometry width="160" relative="1" as="geometry">
            <mxPoint x="460" y="280" as="sourcePoint" />
            <mxPoint x="400" y="210" as="targetPoint" />
            <Array as="points" />
          </mxGeometry>
        </mxCell>
        <mxCell id="UPu4TW0xkY7LnopA_LCy-29" value="" style="endArrow=block;endSize=16;endFill=0;html=1;rounded=0;fontSize=15;entryX=0.329;entryY=1.006;entryDx=0;entryDy=0;exitX=0.5;exitY=0;exitDx=0;exitDy=0;entryPerimeter=0;" parent="1" source="UPu4TW0xkY7LnopA_LCy-18" target="UPu4TW0xkY7LnopA_LCy-16" edge="1">
          <mxGeometry width="160" relative="1" as="geometry">
            <mxPoint x="370" y="270" as="sourcePoint" />
            <mxPoint x="530" y="270" as="targetPoint" />
            <Array as="points">
              <mxPoint x="600" y="260" />
              <mxPoint x="640" y="260" />
            </Array>
          </mxGeometry>
        </mxCell>
        <mxCell id="UPu4TW0xkY7LnopA_LCy-31" value="" style="endArrow=block;endSize=16;endFill=0;html=1;rounded=0;fontSize=15;entryX=0.663;entryY=1.006;entryDx=0;entryDy=0;entryPerimeter=0;exitX=0.5;exitY=0;exitDx=0;exitDy=0;" parent="1" source="UPu4TW0xkY7LnopA_LCy-19" target="UPu4TW0xkY7LnopA_LCy-16" edge="1">
          <mxGeometry width="160" relative="1" as="geometry">
            <mxPoint x="730" y="270" as="sourcePoint" />
            <mxPoint x="530" y="270" as="targetPoint" />
            <Array as="points">
              <mxPoint x="740" y="260" />
              <mxPoint x="680" y="260" />
            </Array>
          </mxGeometry>
        </mxCell>
        <mxCell id="UPu4TW0xkY7LnopA_LCy-32" value="" style="endArrow=diamondThin;endFill=0;endSize=24;html=1;rounded=0;fontSize=15;entryX=1;entryY=0.25;entryDx=0;entryDy=0;exitX=0.5;exitY=0;exitDx=0;exitDy=0;" parent="1" source="UPu4TW0xkY7LnopA_LCy-16" target="UPu4TW0xkY7LnopA_LCy-1" edge="1">
          <mxGeometry width="160" relative="1" as="geometry">
            <mxPoint x="370" y="270" as="sourcePoint" />
            <mxPoint x="530" y="270" as="targetPoint" />
            <Array as="points">
              <mxPoint x="660" y="55" />
            </Array>
          </mxGeometry>
        </mxCell>
        <mxCell id="UPu4TW0xkY7LnopA_LCy-37" value="" style="endArrow=none;html=1;edgeStyle=orthogonalEdgeStyle;rounded=0;fontSize=15;exitX=0.5;exitY=1;exitDx=0;exitDy=0;entryX=0;entryY=0.667;entryDx=0;entryDy=0;entryPerimeter=0;" parent="1" source="UPu4TW0xkY7LnopA_LCy-6" target="UPu4TW0xkY7LnopA_LCy-16" edge="1">
          <mxGeometry relative="1" as="geometry">
            <mxPoint x="340" y="240" as="sourcePoint" />
            <mxPoint x="570" y="240" as="targetPoint" />
            <Array as="points">
              <mxPoint x="240" y="240" />
              <mxPoint x="570" y="240" />
              <mxPoint x="570" y="200" />
            </Array>
          </mxGeometry>
        </mxCell>
        <mxCell id="UPu4TW0xkY7LnopA_LCy-38" value="&amp;nbsp;1" style="edgeLabel;resizable=0;html=1;align=left;verticalAlign=bottom;fontSize=15;strokeWidth=2;" parent="UPu4TW0xkY7LnopA_LCy-37" connectable="0" vertex="1">
          <mxGeometry x="-1" relative="1" as="geometry">
            <mxPoint x="-21" y="20" as="offset" />
          </mxGeometry>
        </mxCell>
        <mxCell id="UPu4TW0xkY7LnopA_LCy-39" value="*" style="edgeLabel;resizable=0;html=1;align=right;verticalAlign=bottom;fontSize=15;strokeWidth=2;" parent="UPu4TW0xkY7LnopA_LCy-37" connectable="0" vertex="1">
          <mxGeometry x="1" relative="1" as="geometry">
            <mxPoint x="-10" as="offset" />
          </mxGeometry>
        </mxCell>
      </root>
    </mxGraphModel>
  </diagram>
</mxfile>
